<svg xmlns="http://www.w3.org/2000/svg" viewBox="0 0 60.74 61.99"><defs><style>.cls-1{fill:#97d700;}.cls-2{fill:#88d312;}.cls-3{fill:#79cf25;}.cls-4{fill:#6acb37;}.cls-5{fill:#5bc74a;}.cls-6{fill:#4cc35c;}.cls-7{fill:#43c168;}.cls-8{fill:#39be73;}.cls-9{fill:#30bc7f;}.cls-10{fill:#26b98b;}.cls-11{fill:#1cb796;}.cls-12{fill:#13b5a2;}.cls-13{fill:#0ab2ad;}.cls-14{fill:#00b0b9;}</style></defs><title>Asset 1</title><g id="Layer_2" data-name="Layer 2"><g id="Layer_1-2" data-name="Layer 1"><polygon class="cls-1" points="0 30.37 0 61.99 2.48 43.95 2.48 27.89 0 30.37"/><polygon class="cls-2" points="8.22 22.15 5.28 25.1 2.48 43.95 0 61.99 5.01 43.8 8.22 22.15"/><polygon class="cls-3" points="16.55 13.82 12.86 17.51 5.01 43.8 0 61.99 7.54 43.98 16.55 13.82"/><polygon class="cls-4" points="25.35 5.02 7.54 43.98 0 61.99 10.04 44.48 30.37 0 25.35 5.02"/><polygon class="cls-5" points="0 61.99 12.48 45.26 36.91 6.54 35.11 4.74 10.04 44.48 0 61.99"/><polygon class="cls-6" points="0 61.99 14.82 46.33 42.87 12.5 41.11 10.74 12.48 45.26 0 61.99"/><polygon class="cls-7" points="0 61.99 17.04 47.64 48.51 18.14 46.76 16.39 14.82 46.33 0 61.99"/><polygon class="cls-8" points="0 61.99 19.13 49.18 54 23.64 52.23 21.86 17.04 47.64 0 61.99"/><polygon class="cls-9" points="0 61.99 21.09 50.92 59.5 29.14 57.69 27.32 19.13 49.18 0 61.99"/><polygon class="cls-10" points="0 61.99 22.9 52.84 60.74 36.67 60.74 33.98 21.09 50.92 0 61.99"/><polygon class="cls-11" points="0 61.99 24.57 54.92 60.74 43.89 60.74 41.29 22.9 52.84 0 61.99"/><polygon class="cls-12" points="0 61.99 26.1 57.15 60.74 50.38 60.74 47.85 24.57 54.92 0 61.99"/><polygon class="cls-13" points="0 61.99 27.51 59.51 60.74 56.37 60.74 53.88 26.1 57.15 0 61.99"/><polygon class="cls-14" points="0 61.99 60.74 61.99 60.74 59.51 27.51 59.51 0 61.99"/></g></g></svg>